<?xml version="1.0" standalone="no"?>
<!DOCTYPE svg PUBLIC "-//W3C//DTD SVG 20010904//EN"
 "http://www.w3.org/TR/2001/REC-SVG-20010904/DTD/svg10.dtd">
<svg version="1.0" xmlns="http://www.w3.org/2000/svg"
 width="288.000000pt" height="288.000000pt" viewBox="0 0 288.000000 288.000000"
 preserveAspectRatio="xMidYMid meet">

<g transform="translate(0.000000,288.000000) scale(0.100000,-0.100000)"
fill="#000000" stroke="none">
<path d="M1255 2869 c-616 -83 -1108 -549 -1232 -1166 -24 -122 -24 -404 0
-526 59 -293 192 -543 401 -753 210 -209 460 -342 753 -401 122 -24 404 -24
526 0 524 105 942 474 1107 975 51 158 64 249 64 442 0 193 -13 284 -64 442
-73 222 -186 406 -354 574 -208 208 -462 343 -748 399 -99 20 -355 28 -453 14z
m465 -822 l0 -142 -240 -173 -240 -173 120 -116 c66 -64 119 -117 118 -118 -2
-2 -58 -21 -124 -43 l-121 -39 -179 171 -178 172 330 238 c181 132 367 267
414 302 47 34 88 63 93 63 4 1 7 -63 7 -142z m237 -709 l43 -44 -53 -39 c-79
-60 -730 -530 -761 -550 l-26 -17 0 144 0 144 240 173 239 174 -122 117 -122
118 125 39 125 40 135 -128 c74 -70 154 -147 177 -171z"/>
</g>
</svg>
